<svg class="HSjOX" width="18" height="18" viewBox="0 0 24 24" version="1.1" aria-hidden="false"><desc lang="en-US">A copyright icon ©</desc><path d="M10 11.87v.27c0 .33.03.67.08 1 .05.33.16.63.3.88s.34.46.59.62c.23.15.53.22.89.23.21-.01.41-.03.6-.1.2-.07.37-.17.52-.3.15-.13.27-.28.36-.46.09-.18.14-.37.15-.58h1.79c-.01.41-.12.79-.3 1.15s-.43.67-.74.94c-.31.27-.67.48-1.08.63-.41.15-.85.23-1.32.23-.65 0-1.22-.12-1.7-.34-.48-.22-.88-.53-1.2-.91s-.56-.83-.71-1.35c-.15-.52-.23-1.06-.23-1.64v-.27c0-.58.09-1.12.24-1.64.15-.52.39-.97.71-1.36s.72-.69 1.2-.92c.48-.23 1.05-.34 1.7-.34.51 0 .97.07 1.39.23.42.16.78.38 1.08.66s.53.62.7 1.01c.17.39.26.82.28 1.29h-1.79c-.01-.22-.05-.44-.14-.64-.09-.2-.2-.38-.34-.53-.14-.15-.32-.27-.52-.36-.19-.08-.4-.12-.63-.13-.37.01-.67.08-.91.23-.25.16-.45.37-.59.62s-.25.54-.3.87c-.05.33-.08.66-.08 1.01ZM22 12c0 5.52-4.48 10-10 10S2 17.52 2 12 6.48 2 12 2s10 4.48 10 10Zm-2 0c0-4.41-3.59-8-8-8s-8 3.59-8 8 3.59 8 8 8 8-3.59 8-8Z"></path></svg>